<svg id="wave" style="transform:rotate(0deg); transition: 0.3s" viewBox="0 0 1440 140" version="1.1" xmlns="http://www.w3.org/2000/svg"><defs><linearGradient id="sw-gradient-0" x1="0" x2="0" y1="1" y2="0"><stop stop-color="rgba(49, 45, 75, 1)" offset="0%"></stop><stop stop-color="rgba(59, 53, 93, 1)" offset="100%"></stop></linearGradient></defs><path style="transform:translate(0, 0px); opacity:1" fill="url(#sw-gradient-0)" d="M0,0L720,56L1440,98L2160,42L2880,0L3600,126L4320,56L5040,70L5760,56L6480,14L7200,112L7920,112L8640,70L9360,0L10080,84L10800,56L11520,56L12240,28L12960,42L13680,98L14400,70L15120,98L15840,0L16560,70L17280,28L17280,140L16560,140L15840,140L15120,140L14400,140L13680,140L12960,140L12240,140L11520,140L10800,140L10080,140L9360,140L8640,140L7920,140L7200,140L6480,140L5760,140L5040,140L4320,140L3600,140L2880,140L2160,140L1440,140L720,140L0,140Z"></path><defs><linearGradient id="sw-gradient-1" x1="0" x2="0" y1="1" y2="0"><stop stop-color="rgba(49, 45, 75, 1)" offset="0%"></stop><stop stop-color="rgba(83, 75, 134, 1)" offset="100%"></stop></linearGradient></defs><path style="transform:translate(0, 50px); opacity:0.9" fill="url(#sw-gradient-1)" d="M0,28L720,126L1440,56L2160,112L2880,14L3600,28L4320,98L5040,98L5760,98L6480,126L7200,98L7920,56L8640,126L9360,84L10080,28L10800,70L11520,28L12240,56L12960,126L13680,112L14400,14L15120,42L15840,126L16560,98L17280,28L17280,140L16560,140L15840,140L15120,140L14400,140L13680,140L12960,140L12240,140L11520,140L10800,140L10080,140L9360,140L8640,140L7920,140L7200,140L6480,140L5760,140L5040,140L4320,140L3600,140L2880,140L2160,140L1440,140L720,140L0,140Z"></path></svg>