<?xml version="1.0" encoding="UTF-8"?>
<!DOCTYPE svg PUBLIC "-//W3C//DTD SVG 1.1//EN" "http://www.w3.org/Graphics/SVG/1.1/DTD/svg11.dtd">
<!-- Creator: CorelDRAW 2018 (64 Bit Versión de evaluación) -->
<svg xmlns="http://www.w3.org/2000/svg" xml:space="preserve" width="55.5922mm" height="20.3733mm" version="1.1" style="shape-rendering:geometricPrecision; text-rendering:geometricPrecision; image-rendering:optimizeQuality; fill-rule:evenodd; clip-rule:evenodd"
viewBox="0 0 4532.72 1661.14"
 xmlns:xlink="http://www.w3.org/1999/xlink">
 <defs>
  <style type="text/css">
   <![CDATA[
    .fil7 {fill:none}
    .fil5 {fill:#EB0008}
    .fil6 {fill:#FEFEFE;fill-rule:nonzero}
    .fil8 {fill:#FEFEFE;fill-rule:nonzero}
    .fil4 {fill:#FEFEFE;fill-rule:nonzero}
    .fil3 {fill:#FEFEFE;fill-rule:nonzero}
    .fil0 {fill:url(#id1)}
    .fil1 {fill:url(#id2)}
    .fil2 {fill:url(#id3)}
   ]]>
  </style>
     <clipPath id="id0">
      <path d="M940.53 67.36c-66.29,-42.63 -145.17,-67.36 -229.83,-67.36 -166.36,0 -310.41,95.49 -380.37,234.63 -0.24,5.91 -0.4,11.86 -0.4,17.83 0,234.99 190.56,430.35 425.51,425.5l17.81 -0.37c139.14,-69.97 234.66,-214.03 234.66,-380.39 0,-84.67 -24.74,-163.55 -67.37,-229.84z"/>
     </clipPath>
  <linearGradient id="id1" gradientUnits="userSpaceOnUse" x1="694.44" y1="1532.59" x2="665.13" y2="988.32">
   <stop offset="0" style="stop-opacity:1; stop-color:#346A70"/>
   <stop offset="1" style="stop-opacity:1; stop-color:#373435"/>
  </linearGradient>
  <linearGradient id="id2" gradientUnits="userSpaceOnUse" x1="1209.04" y1="1393.3" x2="734.09" y2="1697.25">
   <stop offset="0" style="stop-opacity:1; stop-color:#0485A2"/>
   <stop offset="1" style="stop-opacity:1; stop-color:#373435"/>
  </linearGradient>
  <linearGradient id="id3" gradientUnits="userSpaceOnUse" x1="845.44" y1="1017.72" x2="1317.45" y2="1270.46">
   <stop offset="0" style="stop-opacity:1; stop-color:#4DB29F"/>
   <stop offset="1" style="stop-opacity:1; stop-color:#373435"/>
  </linearGradient>
 </defs>
 <g id="Capa_x0020_1">
  <metadata id="CorelCorpID_0Corel-Layer"/>
  <g id="_1860655322928">
   <g>
    <g>
     <g>
      <path class="fil0" d="M1209.04 1393.29c-6.14,148.96 -128.83,267.85 -279.3,267.85 -154.4,0 -279.57,-125.16 -279.57,-279.56 0,-45.1 10.7,-87.69 29.66,-125.41 -0.16,3.88 -0.26,7.79 -0.26,11.72 0,154.4 125.16,279.56 279.56,279.56 109.31,0 203.94,-62.73 249.91,-154.16z"/>
      <path class="fil1" d="M959.13 988.32c154.4,0 279.57,125.16 279.57,279.57 0,150.47 -118.89,273.15 -267.84,279.3 91.42,-45.97 154.15,-140.6 154.15,-249.91 0,-154.4 -125.16,-279.57 -279.57,-279.57 -3.92,0 -7.83,0.11 -11.72,0.27 37.72,-18.97 80.31,-29.66 125.41,-29.66z"/>
      <path class="fil2" d="M845.44 1017.71c98.78,0 185.58,51.23 235.31,128.56 -43.56,-28.01 -95.38,-44.26 -151.01,-44.26 -154.4,0 -279.57,125.16 -279.57,279.57 0,55.62 16.25,107.46 44.26,151 -77.33,-49.73 -128.55,-136.53 -128.55,-235.3 0,-154.4 125.16,-279.57 279.56,-279.57z"/>
     </g>
     <path class="fil3" d="M1465.7 1128.56c0,-10.07 3.06,-17.53 9.17,-22.39 6.11,-4.85 14.38,-7.28 24.81,-7.28 6.83,0 13.13,0.9 18.88,2.7 5.76,1.79 9.53,3.06 11.33,3.78l0 141.89 189.9 0 0 -118.69c0,-10.07 2.97,-17.53 8.9,-22.39 5.94,-4.85 14.12,-7.28 24.55,-7.28 7.19,0 13.67,0.9 19.42,2.7 5.75,1.79 9.53,3.24 11.33,4.31l0 363.08 -64.2 0 0 -162.92 -189.9 0 0 162.92 -64.19 0 0 -340.42zm388.97 98.18c0,-10.07 2.88,-17.35 8.63,-21.84 5.75,-4.5 13.84,-6.74 24.27,-6.74 6.47,0 12.41,0.81 17.81,2.42 5.39,1.62 8.99,2.79 10.79,3.51l0 141.89c0,24.46 5.76,43.08 17.26,55.84 11.51,12.77 29.13,19.14 52.88,19.14 23.73,0 41.36,-6.38 52.87,-19.14 11.51,-12.77 17.26,-31.38 17.26,-55.84l0 -119.23c0,-10.07 2.88,-17.35 8.63,-21.84 5.76,-4.5 13.67,-6.74 23.73,-6.74 6.84,0 12.95,0.81 18.35,2.42 5.4,1.62 8.99,2.79 10.8,3.51l0 155.37c0,18.35 -3.15,34.8 -9.44,49.37 -6.29,14.56 -15.29,26.88 -26.98,36.95 -11.68,10.07 -25.63,17.72 -41.81,22.93 -16.18,5.22 -33.98,7.83 -53.41,7.83 -19.42,0 -37.23,-2.61 -53.41,-7.83 -16.18,-5.21 -30.03,-12.86 -41.54,-22.93 -11.5,-10.07 -20.5,-22.39 -26.97,-36.95 -6.47,-14.57 -9.71,-31.02 -9.71,-49.37l0 -132.71zm326.39 67.98c0,-17.26 3.06,-32.36 9.17,-45.32 6.12,-12.95 14.47,-23.73 25.09,-32.37 10.61,-8.63 23.11,-15.19 37.49,-19.69 14.39,-4.49 30.04,-6.74 46.94,-6.74 22.3,0 42.26,4.13 59.88,12.41 17.63,8.28 31.65,20.5 42.08,36.68 10.44,-16.18 24.28,-28.41 41.54,-36.68 17.27,-8.28 36.87,-12.41 58.8,-12.41 16.55,0 32.01,2.16 46.4,6.47 14.38,4.32 26.79,10.79 37.22,19.42 10.43,8.63 18.7,19.42 24.82,32.37 6.12,12.95 9.17,28.06 9.17,45.32l0 174.8 -61.5 0 0 -153.75c0,-24.82 -5.58,-42.53 -16.72,-53.14 -11.15,-10.61 -26.25,-15.92 -45.32,-15.92 -18.35,0 -33.72,5.94 -46.13,17.81 -12.41,11.87 -18.61,31.11 -18.61,57.73l0 147.28 -61.5 0 0 -147.28c0,-26.61 -6.2,-45.86 -18.61,-57.73 -12.41,-11.87 -27.79,-17.81 -46.13,-17.81 -18.7,0 -33.8,5.4 -45.32,16.19 -11.5,10.79 -17.26,28.59 -17.26,53.41l0 153.21 -61.5 0 0 -174.26zm745.04 173.18c-3.6,0.72 -9.26,1.52 -17,2.43 -7.73,0.9 -16.81,1.79 -27.24,2.7 -10.43,0.9 -22.12,1.7 -35.07,2.42 -12.95,0.73 -26.43,1.08 -40.46,1.08 -28.06,0 -50.98,-2.43 -68.79,-7.28 -17.8,-4.86 -31.82,-11.33 -42.08,-19.42 -10.25,-8.1 -17.26,-17.45 -21.04,-28.06 -3.78,-10.61 -5.67,-21.49 -5.67,-32.64 0,-14.75 2.25,-27.7 6.74,-38.84 4.5,-11.15 11.87,-20.51 22.12,-28.06 10.25,-7.55 23.65,-13.22 40.19,-16.99 16.55,-3.78 36.69,-5.67 60.43,-5.67 13.67,0 26.61,0.45 38.84,1.35 12.23,0.91 21.4,1.71 27.52,2.43 0,-12.59 -2.07,-23.02 -6.2,-31.29 -4.13,-8.27 -9.8,-14.74 -17,-19.42 -7.19,-4.67 -15.82,-7.91 -25.9,-9.7 -10.07,-1.8 -21.22,-2.7 -33.45,-2.7 -20.5,0 -36.95,2.33 -49.36,7.01 -12.41,4.67 -20.59,8.63 -24.55,11.86 -2.15,-1.79 -5.12,-5.21 -8.9,-10.25 -3.78,-5.03 -5.66,-11.15 -5.66,-18.34 0,-5.04 1.35,-9.99 4.04,-14.84 2.7,-4.85 7.46,-9.17 14.29,-12.95 6.83,-3.78 16.01,-6.74 27.52,-8.9 11.5,-2.15 26.07,-3.24 43.7,-3.24 21.22,0 40.55,2.07 57.99,6.2 17.45,4.13 32.46,10.7 45.05,19.69 12.59,8.99 22.39,20.86 29.4,35.61 7.02,14.75 10.53,32.55 10.53,53.41l0 162.39zm-60.96 -119.77c-3.6,-0.72 -10.34,-1.8 -20.23,-3.24 -9.9,-1.44 -24.73,-2.16 -44.51,-2.16 -24.46,0 -42.26,3.69 -53.41,11.06 -11.15,7.37 -16.72,18.97 -16.72,34.8 0,6.47 1.17,12.4 3.51,17.8 2.34,5.4 6.38,9.98 12.14,13.75 5.76,3.78 13.58,6.65 23.47,8.63 9.89,1.98 22.21,2.97 36.96,2.97 16.54,0 29.67,-0.63 39.38,-1.89 9.71,-1.26 16.18,-2.24 19.42,-2.97l0 -78.76zm124.08 -42.62c0,-17.99 3.33,-34.08 9.98,-48.29 6.66,-14.21 15.83,-26.25 27.52,-36.14 11.69,-9.89 25.54,-17.45 41.54,-22.66 16.01,-5.22 33.54,-7.83 52.6,-7.83 19.06,0 36.68,2.61 52.87,7.83 16.18,5.21 30.13,12.77 41.81,22.66 11.69,9.89 20.78,21.93 27.25,36.14 6.47,14.2 9.71,30.3 9.71,48.29l0 163.46 -61.5 0 0 -147.82c0,-24.46 -5.94,-43.08 -17.81,-55.84 -11.87,-12.77 -29.31,-19.15 -52.33,-19.15 -23.38,0 -40.91,6.38 -52.6,19.15 -11.69,12.77 -17.54,31.38 -17.54,55.84l0 147.82 -61.5 0 0 -163.46zm387.9 163.46c-17.62,-41.35 -32.09,-76.42 -43.43,-105.2 -11.33,-28.77 -20.32,-52.6 -26.97,-71.48 -6.65,-18.88 -11.33,-33.45 -14.03,-43.7 -2.7,-10.25 -4.04,-17.53 -4.04,-21.85 0,-7.55 2.52,-14.2 7.55,-19.96 5.04,-5.76 12.77,-8.63 23.2,-8.63 7.92,0 14.12,0.72 18.61,2.15 4.5,1.44 7.47,2.52 8.9,3.24 4.32,15.83 9.17,32.64 14.57,50.45 5.39,17.8 10.97,35.52 16.72,53.14 5.76,17.63 11.41,34.44 16.99,50.45 5.58,16.01 10.52,30.3 14.84,42.89 3.95,-11.15 8.18,-23.91 12.68,-38.31 4.49,-14.38 9.16,-29.22 14.02,-44.5 4.85,-15.29 9.62,-30.76 14.29,-46.4 4.68,-15.65 8.99,-30.48 12.95,-44.51 2.88,-9.35 6.92,-16.45 12.14,-21.31 5.22,-4.86 13.58,-7.28 25.09,-7.28 7.19,0 13.67,0.99 19.42,2.96 5.76,1.98 9.35,3.33 10.79,4.05 4.68,16.18 9.71,33.18 15.11,50.98 5.4,17.8 10.79,35.33 16.18,52.6 5.4,17.26 10.7,33.8 15.92,49.63 5.22,15.83 9.98,29.85 14.29,42.08 9.35,-24.81 18.97,-51.97 28.86,-81.46 9.89,-29.49 18.97,-58.98 27.25,-88.47 3.24,-11.15 7.46,-19.33 12.68,-24.55 5.21,-5.22 13.22,-7.82 24,-7.82 9.71,0 17.63,1.61 23.73,4.85 6.12,3.24 9.53,5.22 10.26,5.94 -2.88,11.87 -7.92,28.24 -15.11,49.09 -7.19,20.86 -15.29,43.43 -24.28,67.71 -8.99,24.28 -18.52,49.09 -28.59,74.45 -10.08,25.36 -19.61,48.29 -28.59,68.78l-63.66 0c-2.88,-7.55 -6.74,-18.61 -11.6,-33.18 -4.85,-14.56 -10.16,-30.48 -15.92,-47.75 -5.75,-17.26 -11.41,-34.98 -16.99,-53.14 -5.58,-18.17 -10.7,-34.8 -15.38,-49.9 -4.67,15.1 -9.8,31.73 -15.37,49.9 -5.58,18.16 -11.15,35.88 -16.73,53.14 -5.57,17.27 -10.7,33.18 -15.37,47.75 -4.68,14.57 -8.46,25.63 -11.33,33.18l-63.66 0zm622.04 -1.08c-3.6,0.72 -9.26,1.52 -16.99,2.43 -7.74,0.9 -16.81,1.79 -27.25,2.7 -10.43,0.9 -22.11,1.7 -35.07,2.42 -12.95,0.73 -26.43,1.08 -40.46,1.08 -28.06,0 -50.98,-2.43 -68.78,-7.28 -17.81,-4.86 -31.83,-11.33 -42.08,-19.42 -10.26,-8.1 -17.27,-17.45 -21.04,-28.06 -3.78,-10.61 -5.67,-21.49 -5.67,-32.64 0,-14.75 2.25,-27.7 6.74,-38.84 4.5,-11.15 11.87,-20.51 22.12,-28.06 10.25,-7.55 23.65,-13.22 40.2,-16.99 16.54,-3.78 36.68,-5.67 60.42,-5.67 13.67,0 26.62,0.45 38.85,1.35 12.22,0.91 21.39,1.71 27.51,2.43 0,-12.59 -2.07,-23.02 -6.2,-31.29 -4.13,-8.27 -9.8,-14.74 -16.99,-19.42 -7.2,-4.67 -15.83,-7.91 -25.9,-9.7 -10.07,-1.8 -21.22,-2.7 -33.45,-2.7 -20.5,0 -36.95,2.33 -49.36,7.01 -12.41,4.67 -20.59,8.63 -24.54,11.86 -2.16,-1.79 -5.13,-5.21 -8.9,-10.25 -3.78,-5.03 -5.67,-11.15 -5.67,-18.34 0,-5.04 1.35,-9.99 4.04,-14.84 2.7,-4.85 7.47,-9.17 14.3,-12.95 6.83,-3.78 16.01,-6.74 27.51,-8.9 11.51,-2.15 26.07,-3.24 43.7,-3.24 21.22,0 40.55,2.07 58,6.2 17.44,4.13 32.46,10.7 45.05,19.69 12.59,8.99 22.39,20.86 29.4,35.61 7.01,14.75 10.52,32.55 10.52,53.41l0 162.39zm-60.96 -119.77c-3.6,-0.72 -10.34,-1.8 -20.23,-3.24 -9.89,-1.44 -24.73,-2.16 -44.51,-2.16 -24.45,0 -42.26,3.69 -53.41,11.06 -11.15,7.37 -16.73,18.97 -16.73,34.8 0,6.47 1.17,12.4 3.51,17.8 2.34,5.4 6.38,9.98 12.14,13.75 5.76,3.78 13.58,6.65 23.47,8.63 9.9,1.98 22.21,2.97 36.96,2.97 16.54,0 29.67,-0.63 39.38,-1.89 9.71,-1.26 16.18,-2.24 19.42,-2.97l0 -78.76zm124.09 -53.41c0,-33.09 10.16,-58.71 30.48,-76.87 20.32,-18.17 48.46,-27.25 84.43,-27.25 22.66,0 41.09,3.15 55.3,9.44 14.21,6.29 21.31,15.92 21.31,28.86 0,6.12 -1.71,12.05 -5.13,17.81 -3.42,5.75 -6.2,9.35 -8.36,10.79 -6.12,-2.88 -13.67,-5.58 -22.66,-8.1 -8.99,-2.51 -19.24,-3.78 -30.76,-3.78 -42.08,0 -63.12,22.3 -63.12,66.9l0 156.45 -61.5 0 0 -174.26zm460.18 154.3c-2.88,1.8 -7.37,4.32 -13.49,7.56 -6.12,3.24 -13.75,6.29 -22.93,9.16 -9.17,2.88 -19.78,5.4 -31.83,7.56 -12.05,2.15 -25.27,3.24 -39.66,3.24 -20.14,0 -38.93,-3.06 -56.37,-9.17 -17.44,-6.12 -32.73,-15.2 -45.86,-27.25 -13.13,-12.04 -23.47,-26.79 -31.02,-44.23 -7.55,-17.45 -11.33,-37.5 -11.33,-60.16 0,-21.58 3.69,-41.27 11.06,-59.07 7.38,-17.81 17.63,-33.09 30.76,-45.86 13.13,-12.77 28.59,-22.66 46.39,-29.68 17.81,-7.01 37.32,-10.52 58.53,-10.52 18.7,0 35.25,2.43 49.64,7.28 14.38,4.86 26.52,11.33 36.41,19.42 9.89,8.1 17.35,17.54 22.39,28.33 5.03,10.8 7.55,22.3 7.55,34.53 0,12.59 -2.34,24 -7.01,34.26 -4.67,10.25 -12.95,19.06 -24.82,26.43 -11.86,7.37 -27.87,13.13 -48.02,17.26 -20.14,4.13 -45.68,6.2 -76.6,6.2 -7.19,0 -13.94,-0.09 -20.24,-0.27 -6.29,-0.18 -13.04,-0.45 -20.23,-0.81 2.88,18.34 11.78,33.18 26.7,44.5 14.93,11.33 36.24,17 63.93,17 9.35,0 17.99,-0.72 25.9,-2.16 7.92,-1.44 15.02,-3.24 21.31,-5.4 6.29,-2.15 11.69,-4.31 16.18,-6.47 4.49,-2.15 7.82,-3.78 9.98,-4.85l22.66 43.16zm-189.37 -127.86c8.28,0.36 16.18,0.54 23.74,0.54 7.55,0 15.1,0 22.66,0 19.78,0 35.79,-1.26 48.02,-3.78 12.22,-2.52 21.75,-5.76 28.59,-9.71 6.83,-3.96 11.33,-8.46 13.49,-13.49 2.15,-5.03 3.24,-10.25 3.24,-15.64 0,-13.67 -5.49,-23.92 -16.45,-30.76 -10.97,-6.83 -24.55,-10.25 -40.74,-10.25 -13.31,0 -25,2.34 -35.07,7.01 -10.07,4.68 -18.52,10.88 -25.36,18.61 -6.83,7.73 -12.14,16.63 -15.92,26.7 -3.78,10.07 -5.85,20.32 -6.2,30.76z"/>
     <path class="fil3" d="M3465.13 1650.22c2.44,-6.54 5.17,-13.58 8.19,-21.15 3.02,-7.56 6.2,-15.32 9.52,-23.27 3.32,-7.96 6.76,-16.03 10.31,-24.22 3.56,-8.19 7.1,-16.2 10.62,-24 1.75,-3.91 3.75,-6.61 6,-8.13 2.24,-1.51 5.07,-2.27 8.49,-2.27 1.26,0 2.51,0.15 3.73,0.44 1.21,0.29 2.29,0.64 3.22,1.03 0.92,0.39 1.7,0.76 2.34,1.1 0.64,0.33 0.99,0.55 1.1,0.65 1.56,2.73 3.58,6.78 6.07,12.15 2.49,5.37 5.17,11.39 8.05,18.08 2.88,6.69 5.83,13.67 8.85,20.93 3.02,7.27 5.83,14.15 8.41,20.64 2.58,6.49 4.85,12.25 6.81,17.28 1.95,5.02 3.32,8.61 4.09,10.75l-19.32 0c-0.49,-1.17 -1.13,-2.83 -1.9,-4.97 -0.78,-2.14 -1.64,-4.47 -2.57,-6.95 -0.92,-2.49 -1.88,-5 -2.85,-7.54 -0.97,-2.54 -1.85,-4.78 -2.63,-6.73l-49.04 0c-2.14,5.37 -4.07,10.31 -5.78,14.86 -1.7,4.53 -3.1,8.32 -4.17,11.34l-17.56 0zm70.69 -41.57c-1.36,-3.61 -2.93,-7.59 -4.68,-11.93 -1.76,-4.35 -3.49,-8.59 -5.2,-12.74 -1.7,-4.15 -3.31,-7.93 -4.83,-11.34 -1.51,-3.42 -2.71,-6 -3.59,-7.76 -1.26,2.73 -2.68,5.84 -4.24,9.3 -1.57,3.47 -3.17,7.13 -4.84,10.98 -1.66,3.85 -3.32,7.78 -4.97,11.78 -1.66,4 -3.22,7.9 -4.69,11.71l37.03 0zm63.52 -8.93c0.68,0.1 2.58,0.37 5.71,0.8 3.12,0.44 7.13,0.66 12,0.66 5.37,0 9.86,-0.49 13.47,-1.46 3.6,-0.98 6.46,-2.34 8.56,-4.1 2.1,-1.75 3.59,-3.78 4.46,-6.07 0.88,-2.29 1.32,-4.75 1.32,-7.39 0,-2.45 -0.39,-4.81 -1.17,-7.1 -0.77,-2.29 -2.24,-4.32 -4.39,-6.07 -2.15,-1.75 -5.1,-3.17 -8.85,-4.24 -3.76,-1.08 -8.56,-1.61 -14.42,-1.61 -4.69,0 -8.45,0.1 -11.28,0.29 -2.83,0.2 -4.63,0.39 -5.41,0.59l0 35.71zm-16.98 -40.4c0,-3.12 0.77,-5.37 2.34,-6.73 1.56,-1.37 3.47,-2.3 5.71,-2.79 1.56,-0.29 4.39,-0.6 8.49,-0.95 4.1,-0.34 9.96,-0.51 17.56,-0.51 15.61,0 27.22,3.07 34.84,9.22 7.61,6.15 11.41,14.34 11.41,24.59 0,4.78 -0.81,9.25 -2.41,13.39 -1.61,4.15 -4.17,7.74 -7.69,10.76 -3.51,3.02 -8.1,5.39 -13.75,7.09 -5.66,1.71 -12.54,2.56 -20.64,2.56 -2.05,0 -4.13,-0.07 -6.22,-0.22 -2.1,-0.14 -4.03,-0.29 -5.78,-0.43 -1.76,-0.15 -3.27,-0.32 -4.54,-0.51 -1.26,-0.2 -2.05,-0.29 -2.34,-0.29l0 35.71 -16.98 0 0 -90.9zm113.87 40.4c0.68,0.1 2.58,0.37 5.71,0.8 3.12,0.44 7.13,0.66 12,0.66 5.37,0 9.86,-0.49 13.47,-1.46 3.6,-0.98 6.46,-2.34 8.56,-4.1 2.1,-1.75 3.58,-3.78 4.46,-6.07 0.88,-2.29 1.32,-4.75 1.32,-7.39 0,-2.45 -0.39,-4.81 -1.17,-7.1 -0.78,-2.29 -2.24,-4.32 -4.39,-6.07 -2.15,-1.75 -5.1,-3.17 -8.86,-4.24 -3.75,-1.08 -8.56,-1.61 -14.42,-1.61 -4.68,0 -8.44,0.1 -11.27,0.29 -2.83,0.2 -4.63,0.39 -5.41,0.59l0 35.71zm-16.98 -40.4c0,-3.12 0.78,-5.37 2.35,-6.73 1.56,-1.37 3.46,-2.3 5.71,-2.79 1.56,-0.29 4.39,-0.6 8.49,-0.95 4.1,-0.34 9.96,-0.51 17.56,-0.51 15.61,0 27.22,3.07 34.83,9.22 7.62,6.15 11.42,14.34 11.42,24.59 0,4.78 -0.81,9.25 -2.41,13.39 -1.61,4.15 -4.17,7.74 -7.69,10.76 -3.51,3.02 -8.1,5.39 -13.75,7.09 -5.66,1.71 -12.54,2.56 -20.64,2.56 -2.05,0 -4.12,-0.07 -6.21,-0.22 -2.1,-0.14 -4.03,-0.29 -5.78,-0.43 -1.76,-0.15 -3.27,-0.32 -4.54,-0.51 -1.27,-0.2 -2.05,-0.29 -2.34,-0.29l0 35.71 -16.98 0 0 -90.9zm96.9 -1.46c0,-2.73 0.83,-4.76 2.49,-6.07 1.66,-1.32 3.91,-1.98 6.73,-1.98 1.86,0 3.56,0.24 5.12,0.73 1.57,0.49 2.59,0.83 3.08,1.03l0 82.69 51.66 0 0 15.96 -69.08 0 0 -92.35zm80.51 0c0,-2.73 0.82,-4.76 2.49,-6.07 1.66,-1.32 3.91,-1.98 6.73,-1.98 1.86,0 3.56,0.24 5.13,0.73 1.56,0.49 2.58,0.83 3.07,1.03l0 98.65 -17.42 0 0 -92.35zm123.09 85.62c-1.08,0.78 -2.56,1.71 -4.47,2.78 -1.9,1.08 -4.29,2.1 -7.17,3.07 -2.88,0.98 -6.27,1.81 -10.18,2.49 -3.91,0.68 -8.34,1.03 -13.31,1.03 -7.22,0 -14.06,-1.14 -20.5,-3.44 -6.44,-2.29 -12.12,-5.63 -17.05,-10.02 -4.93,-4.39 -8.83,-9.86 -11.71,-16.4 -2.88,-6.54 -4.32,-14.05 -4.32,-22.54 0,-8.4 1.39,-15.91 4.17,-22.54 2.78,-6.64 6.59,-12.22 11.41,-16.76 4.83,-4.54 10.46,-8.01 16.9,-10.4 6.44,-2.39 13.32,-3.59 20.64,-3.59 7.02,0 12.78,0.59 17.27,1.76 4.48,1.17 8.02,2.61 10.61,4.31 2.58,1.71 4.39,3.47 5.42,5.27 1.02,1.81 1.53,3.29 1.53,4.47 0,1.27 -0.27,2.49 -0.81,3.66 -0.54,1.17 -1.17,2.22 -1.9,3.15 -0.73,0.93 -1.49,1.73 -2.27,2.41 -0.78,0.68 -1.47,1.17 -2.05,1.47 -0.97,-1.08 -2.32,-2.25 -4.02,-3.51 -1.71,-1.27 -3.73,-2.45 -6.07,-3.51 -2.35,-1.08 -4.98,-1.98 -7.91,-2.71 -2.93,-0.73 -6.1,-1.1 -9.52,-1.1 -4.97,0 -9.6,0.86 -13.9,2.56 -4.29,1.71 -8,4.2 -11.12,7.47 -3.12,3.27 -5.59,7.22 -7.4,11.86 -1.8,4.63 -2.71,9.88 -2.71,15.74 0,5.95 0.95,11.19 2.85,15.73 1.9,4.54 4.52,8.35 7.84,11.42 3.31,3.07 7.22,5.39 11.71,6.95 4.48,1.57 9.32,2.35 14.49,2.35 6.15,0 11.44,-0.78 15.88,-2.35 4.44,-1.56 7.68,-3.02 9.73,-4.39l7.76 13.31 0.15 0zm2.93 6.73c2.44,-6.54 5.17,-13.58 8.19,-21.15 3.02,-7.56 6.2,-15.32 9.52,-23.27 3.32,-7.96 6.76,-16.03 10.31,-24.22 3.56,-8.19 7.1,-16.2 10.62,-24 1.75,-3.91 3.76,-6.61 6,-8.13 2.24,-1.51 5.07,-2.27 8.49,-2.27 1.27,0 2.51,0.15 3.73,0.44 1.21,0.29 2.29,0.64 3.22,1.03 0.93,0.39 1.7,0.76 2.34,1.1 0.64,0.33 1,0.55 1.1,0.65 1.56,2.73 3.58,6.78 6.07,12.15 2.49,5.37 5.17,11.39 8.05,18.08 2.88,6.69 5.83,13.67 8.85,20.93 3.02,7.27 5.83,14.15 8.41,20.64 2.58,6.49 4.86,12.25 6.81,17.28 1.95,5.02 3.32,8.61 4.1,10.75l-19.32 0c-0.49,-1.17 -1.13,-2.83 -1.9,-4.97 -0.78,-2.14 -1.64,-4.47 -2.56,-6.95 -0.93,-2.49 -1.88,-5 -2.86,-7.54 -0.97,-2.54 -1.85,-4.78 -2.63,-6.73l-49.03 0c-2.15,5.37 -4.08,10.31 -5.79,14.86 -1.7,4.53 -3.09,8.32 -4.17,11.34l-17.56 0zm70.69 -41.57c-1.36,-3.61 -2.93,-7.59 -4.68,-11.93 -1.76,-4.35 -3.49,-8.59 -5.2,-12.74 -1.7,-4.15 -3.31,-7.93 -4.83,-11.34 -1.51,-3.42 -2.71,-6 -3.59,-7.76 -1.26,2.73 -2.68,5.84 -4.24,9.3 -1.57,3.47 -3.17,7.13 -4.84,10.98 -1.66,3.85 -3.32,7.78 -4.97,11.78 -1.66,4 -3.22,7.9 -4.69,11.71l37.03 0zm62.79 -42.89l-29.27 0c-5.76,0 -8.63,-2.63 -8.63,-7.9 0,-1.86 0.29,-3.54 0.88,-5.06 0.59,-1.51 1.02,-2.51 1.31,-3l83.57 0c5.76,0 8.64,2.63 8.64,7.91 0,1.85 -0.27,3.54 -0.81,5.05 -0.54,1.52 -1,2.51 -1.39,3l-36.88 0 0 84.45 -17.42 0 0 -84.45zm67.92 -7.9c0,-2.73 0.83,-4.76 2.49,-6.07 1.66,-1.32 3.91,-1.98 6.73,-1.98 1.85,0 3.56,0.24 5.12,0.73 1.57,0.49 2.58,0.83 3.07,1.03l0 98.65 -17.42 0 0 -92.35zm87.97 -10.69c7.61,0 14.66,1.35 21.15,4.03 6.49,2.68 12.15,6.39 16.98,11.12 4.84,4.74 8.61,10.32 11.34,16.76 2.73,6.43 4.1,13.41 4.1,20.93 0,7.51 -1.37,14.49 -4.1,20.93 -2.73,6.44 -6.51,12.03 -11.34,16.76 -4.83,4.74 -10.49,8.44 -16.98,11.13 -6.49,2.68 -13.54,4.02 -21.15,4.02 -7.62,0 -14.66,-1.34 -21.15,-4.02 -6.49,-2.69 -12.15,-6.39 -16.98,-11.13 -4.83,-4.73 -8.61,-10.31 -11.34,-16.76 -2.73,-6.44 -4.09,-13.42 -4.09,-20.93 0,-7.52 1.36,-14.5 4.09,-20.93 2.73,-6.44 6.51,-12.03 11.34,-16.76 4.84,-4.73 10.49,-8.44 16.98,-11.12 6.49,-2.68 13.53,-4.03 21.15,-4.03zm0 89.73c5.07,0 9.75,-0.93 14.05,-2.78 4.3,-1.86 8,-4.42 11.12,-7.69 3.12,-3.27 5.59,-7.15 7.4,-11.64 1.8,-4.49 2.71,-9.42 2.71,-14.78 0,-5.37 -0.91,-10.32 -2.71,-14.86 -1.8,-4.54 -4.27,-8.45 -7.4,-11.71 -3.12,-3.27 -6.82,-5.81 -11.12,-7.62 -4.3,-1.8 -8.98,-2.71 -14.05,-2.71 -5.08,0 -9.76,0.91 -14.06,2.71 -4.29,1.81 -8.02,4.35 -11.19,7.62 -3.17,3.26 -5.63,7.17 -7.39,11.71 -1.76,4.53 -2.64,9.49 -2.64,14.86 0,5.37 0.88,10.29 2.64,14.78 1.75,4.48 4.22,8.37 7.39,11.64 3.17,3.27 6.91,5.83 11.19,7.69 4.3,1.85 8.98,2.78 14.06,2.78zm70.69 -77.73c0,-3.41 1.05,-5.83 3.15,-7.24 2.1,-1.42 4.57,-2.13 7.4,-2.13 2.73,0 4.97,0.44 6.73,1.32 1.75,0.88 2.98,1.57 3.65,2.05 0.98,1.17 2.56,3.25 4.76,6.22 2.19,2.98 4.73,6.49 7.61,10.54 2.88,4.04 5.95,8.44 9.22,13.17 3.27,4.74 6.51,9.44 9.74,14.13 3.22,4.68 6.27,9.22 9.15,13.61 2.88,4.39 5.39,8.24 7.53,11.56l0 -64.54c0,-2.73 0.78,-4.76 2.35,-6.07 1.56,-1.32 3.75,-1.98 6.58,-1.98 1.96,0 3.69,0.24 5.2,0.73 1.51,0.49 2.51,0.88 3,1.17l0 98.5 -17.56 0c-1.76,-2.73 -3.86,-5.98 -6.29,-9.74 -2.45,-3.75 -5.15,-7.85 -8.13,-12.3 -2.98,-4.44 -6.07,-9.05 -9.3,-13.83 -3.21,-4.78 -6.43,-9.54 -9.65,-14.27 -3.22,-4.74 -6.37,-9.27 -9.44,-13.62 -3.07,-4.34 -5.88,-8.27 -8.41,-11.78l0 75.53 -17.28 0 0 -91.04zm110.81 68.07c1.07,0.77 2.68,1.73 4.83,2.85 2.14,1.12 4.8,2.24 7.97,3.37 3.17,1.12 6.78,2.07 10.84,2.85 4.04,0.77 8.46,1.17 13.24,1.17 8.49,0 14.56,-1.24 18.22,-3.73 3.66,-2.49 5.49,-6.03 5.49,-10.62 0,-2.24 -0.41,-4.15 -1.24,-5.71 -0.83,-1.57 -2.05,-2.9 -3.66,-4.03 -1.61,-1.12 -3.56,-2.02 -5.85,-2.71 -2.29,-0.68 -4.9,-1.26 -7.83,-1.75l-16.1 -2.93c-4.1,-0.68 -8.05,-1.71 -11.86,-3.07 -3.81,-1.37 -7.18,-3.17 -10.1,-5.41 -2.93,-2.25 -5.27,-5.01 -7.02,-8.28 -1.76,-3.27 -2.64,-7.19 -2.64,-11.78 0,-4.09 0.76,-8 2.27,-11.71 1.51,-3.71 3.92,-6.93 7.24,-9.66 3.32,-2.73 7.52,-4.9 12.59,-6.51 5.07,-1.61 11.22,-2.41 18.44,-2.41 5.27,0 9.86,0.29 13.75,0.88 3.91,0.59 7.22,1.3 9.96,2.12 2.73,0.83 4.92,1.69 6.59,2.56 1.66,0.88 2.88,1.57 3.66,2.05 1.56,1.07 2.83,2.24 3.8,3.51 0.98,1.26 1.47,2.73 1.47,4.39 0,2.24 -0.68,4.32 -2.05,6.22 -1.37,1.91 -2.63,3.25 -3.81,4.03 -0.88,-0.98 -2.27,-2.08 -4.17,-3.29 -1.9,-1.22 -4.24,-2.36 -7.02,-3.44 -2.79,-1.08 -6.03,-2 -9.74,-2.78 -3.71,-0.78 -7.76,-1.17 -12.15,-1.17 -4.39,0 -8.07,0.34 -11.06,1.03 -2.98,0.68 -5.34,1.63 -7.09,2.85 -1.76,1.22 -3.02,2.68 -3.81,4.39 -0.78,1.71 -1.17,3.64 -1.17,5.79 0,3.7 1.44,6.6 4.32,8.71 2.88,2.1 7.68,3.78 14.42,5.05l16.4 3.07c10.63,1.95 18.64,5.14 24,9.59 5.37,4.44 8.05,10.85 8.05,19.24 0,4.69 -0.92,8.91 -2.78,12.66 -1.85,3.76 -4.56,7 -8.12,9.74 -3.56,2.73 -8,4.83 -13.32,6.29 -5.32,1.46 -11.44,2.19 -18.37,2.19 -5.85,0 -11.22,-0.46 -16.1,-1.39 -4.88,-0.93 -9.22,-2.05 -13.03,-3.37 -3.81,-1.32 -6.98,-2.66 -9.52,-4.03 -2.54,-1.36 -4.39,-2.44 -5.56,-3.22l7.62 -13.61z"/>
    </g>
    <path class="fil4" d="M46.72 1418.01c-0.54,2.5 -0.8,4.85 -0.8,7.04 0,9.12 5.28,13.71 15.79,13.71 12.79,0 20.69,-6.88 23.57,-20.74l39.83 -187.34c0.54,-2.5 0.8,-4.85 0.8,-7.04 0,-9.17 -5.28,-13.76 -15.79,-13.76 -12.69,0 -20.58,6.88 -23.56,20.64l-39.84 187.51zm82.77 0c-9.12,42.98 -34.88,64.53 -77.16,64.53 -34.88,-0.11 -52.32,-14.72 -52.32,-43.78 0,-6.24 0.8,-13.17 2.51,-20.74l73.59 -346.37 44.21 0 -22.19 104.37c10.18,-6.56 22.29,-9.87 36.36,-9.87 25.23,0.11 37.82,13.23 37.82,39.36 0,7.41 -0.96,15.79 -2.94,25.17l-39.89 187.34zm169.69 -247.02l44.21 0 -72.79 342.32c-9.07,42.98 -34.77,64.53 -77.06,64.53 -34.87,-0.11 -52.31,-14.77 -52.31,-43.89 0,-6.19 0.75,-13.07 2.35,-20.64l2.35 -11.1 44.21 0 -2.35 11.1c-0.54,2.5 -0.8,4.85 -0.8,7.04 0,9.17 5.28,13.71 15.79,13.75 12.79,-0.05 20.69,-6.93 23.57,-20.79l8 -37.17c-6.78,4.26 -13.71,6.4 -20.8,6.4 -34.77,0 -52.16,-14.56 -52.16,-43.62 0,-6.25 0.8,-13.23 2.51,-20.91l52.48 -247.02 44.21 0 -52.48 247.02c-0.54,2.61 -0.8,4.96 -0.8,7.04 0,9.12 5.23,13.71 15.62,13.71 12.8,0 20.74,-6.82 23.73,-20.42l52.53 -247.34z"/>
   </g>
   <g>
    <path class="fil5" d="M940.53 67.36c-66.29,-42.63 -145.17,-67.36 -229.83,-67.36 -166.36,0 -310.41,95.49 -380.37,234.63 -0.24,5.91 -0.4,11.86 -0.4,17.83 0,234.99 190.56,430.35 425.51,425.5l17.81 -0.37c139.14,-69.97 234.66,-214.03 234.66,-380.39 0,-84.67 -24.74,-163.55 -67.37,-229.84z"/>
    <g style="clip-path:url(#id0)">
     <g>
      <g>
       <path id="1" class="fil6" d="M913.77 374.82l0 0 7.36 6.3 6.97 6.61 6.57 6.9 6.16 7.16 5.76 7.4 5.34 7.63 4.94 7.84 4.52 8.04 4.1 8.21 3.68 8.38 3.26 8.5 2.85 8.64 2.41 8.75 2 8.85 1.57 8.93 1.13 8.96 0.72 9.03 0.27 9.07 -0.15 9.05 -0.59 9.07 -1.03 9.03 -1.46 9 -1.91 8.94 -2.35 8.87 -2.79 8.79 -3.24 8.68 -3.69 8.56 -4.13 8.42 -4.58 8.27 -5.03 8.07 -5.48 7.89 -5.94 7.67 -29.99 -24.41 4.73 -6.12 4.37 -6.29 4 -6.42 3.64 -6.56 3.29 -6.69 2.92 -6.78 2.57 -6.89 2.22 -6.98 1.86 -7.04 1.52 -7.12 1.17 -7.14 0.82 -7.19 0.47 -7.21 0.12 -7.22 -0.22 -7.19 -0.57 -7.18 -0.91 -7.17 -1.24 -7.09 -1.59 -7.04 -1.92 -6.97 -2.26 -6.87 -2.59 -6.78 -2.93 -6.65 -3.25 -6.51 -3.59 -6.38 -3.91 -6.23 -4.25 -6.07 -4.57 -5.87 -4.9 -5.69 -5.22 -5.48 -5.55 -5.26 -5.88 -5.05 0 0 24.41 -29.99zm-265.65 27.13l0 0 6.3 -7.36 6.61 -6.97 6.9 -6.57 7.16 -6.16 7.4 -5.76 7.64 -5.35 7.84 -4.92 8.03 -4.52 8.22 -4.1 8.37 -3.68 8.51 -3.26 8.64 -2.85 8.76 -2.41 8.85 -1.99 8.92 -1.57 8.99 -1.13 9.03 -0.71 9.05 -0.27 9.07 0.15 9.07 0.6 9.04 1.03 9.01 1.48 8.94 1.91 8.89 2.35 8.8 2.8 8.68 3.25 8.56 3.69 8.42 4.13 8.28 4.59 8.09 5.05 7.89 5.49 7.69 5.94 -24.41 29.99 -6.14 -4.75 -6.29 -4.38 -6.44 -4 -6.56 -3.64 -6.69 -3.29 -6.82 -2.94 -6.89 -2.58 -6.99 -2.22 -7.04 -1.88 -7.12 -1.52 -7.15 -1.17 -7.2 -0.82 -7.21 -0.48 -7.22 -0.12 -7.21 0.22 -7.18 0.56 -7.16 0.91 -7.09 1.24 -7.04 1.58 -6.96 1.92 -6.87 2.26 -6.78 2.59 -6.65 2.93 -6.52 3.25 -6.38 3.59 -6.23 3.91 -6.06 4.24 -5.87 4.57 -5.69 4.9 -5.48 5.22 -5.26 5.55 -5.05 5.88 0 0 -29.99 -24.41zm27.27 265.76l0 0 -7.37 -6.31 -6.99 -6.62 -6.58 -6.91 -6.16 -7.17 -5.76 -7.4 -5.36 -7.63 -4.95 -7.86 -4.52 -8.05 -4.1 -8.21 -3.69 -8.37 -3.27 -8.53 -2.85 -8.65 -2.41 -8.75 -2 -8.85 -1.57 -8.94 -1.13 -8.99 -0.71 -9.01 -0.28 -9.06 0.15 -9.07 0.6 -9.07 1.03 -9.03 1.46 -9.01 1.92 -8.96 2.35 -8.89 2.8 -8.8 3.25 -8.69 3.69 -8.55 4.13 -8.43 4.59 -8.28 5.05 -8.09 5.49 -7.89 5.94 -7.69 29.99 24.41 -4.75 6.14 -4.38 6.29 -4 6.44 -3.64 6.56 -3.29 6.7 -2.94 6.81 -2.58 6.9 -2.22 6.99 -1.88 7.04 -1.51 7.1 -1.17 7.17 -0.82 7.2 -0.48 7.22 -0.12 7.2 0.23 7.22 0.56 7.2 0.91 7.15 1.25 7.09 1.59 7.05 1.92 6.97 2.26 6.87 2.6 6.77 2.93 6.66 3.27 6.53 3.59 6.38 3.92 6.23 4.25 6.07 4.58 5.89 4.91 5.7 5.23 5.49 5.55 5.27 5.9 5.06 0 0 -24.41 29.99zm265.63 -27.36l0 0 -6.32 7.37 -6.6 6.97 -6.91 6.59 -7.16 6.17 -7.41 5.76 -7.65 5.35 -7.84 4.93 -8.04 4.53 -8.22 4.11 -8.38 3.69 -8.51 3.26 -8.64 2.85 -8.76 2.41 -8.85 2 -8.92 1.57 -8.99 1.14 -9.03 0.71 -9.05 0.28 -9.07 -0.15 -9.05 -0.59 -9.03 -1.02 -9.02 -1.46 -8.94 -1.91 -8.87 -2.35 -8.79 -2.79 -8.68 -3.24 -8.57 -3.69 -8.41 -4.13 -8.26 -4.58 -8.09 -5.03 -7.89 -5.49 -7.66 -5.93 24.41 -29.99 6.13 4.74 6.28 4.36 6.42 4 6.56 3.64 6.69 3.29 6.79 2.92 6.89 2.57 6.98 2.22 7.04 1.86 7.12 1.52 7.14 1.17 7.19 0.81 7.21 0.47 7.22 0.12 7.21 -0.23 7.18 -0.56 7.16 -0.91 7.09 -1.25 7.05 -1.59 6.96 -1.92 6.87 -2.27 6.78 -2.59 6.65 -2.93 6.52 -3.26 6.39 -3.6 6.23 -3.92 6.07 -4.26 5.88 -4.57 5.69 -4.9 5.49 -5.23 5.28 -5.57 5.05 -5.89 0 0 29.99 24.41zm55.4 210.88l-26.21 -7.75 3.81 -2.1 3.79 -2.15 3.76 -2.19 3.74 -2.24 3.73 -2.29 3.69 -2.33 3.67 -2.38 3.64 -2.43 3.63 -2.48 3.6 -2.54 3.58 -2.58 3.55 -2.62 3.51 -2.66 3.51 -2.72 3.47 -2.76 3.44 -2.81 3.42 -2.86 3.39 -2.91 3.36 -2.94 3.32 -3 3.29 -3.04 3.26 -3.09 3.23 -3.14 3.21 -3.2 3.17 -3.23 3.15 -3.29 3.1 -3.31 3.07 -3.38 3.05 -3.42 3 -3.47 2.97 -3.51 2.94 -3.57 29.99 24.41 -3.24 3.93 -3.28 3.88 -3.33 3.84 -3.36 3.77 -3.38 3.73 -3.44 3.69 -3.47 3.62 -3.5 3.57 -3.54 3.52 -3.57 3.47 -3.62 3.43 -3.65 3.37 -3.68 3.31 -3.72 3.27 -3.73 3.2 -3.78 3.16 -3.8 3.11 -3.84 3.07 -3.86 3 -3.91 2.97 -3.94 2.89 -3.94 2.84 -4 2.8 -4 2.74 -4.04 2.69 -4.08 2.64 -4.1 2.59 -4.11 2.52 -4.13 2.49 -4.18 2.43 -4.18 2.36 -4.22 2.32 -26.21 -7.75 33.97 -18.49zm-7.76 26.24l-16.97 9.21 -9.24 -16.96 26.21 7.75zm-46.39 -44.82l7.73 -26.22 26.24 7.73 20.19 37.07 -33.97 18.49 -20.19 -37.07zm7.73 -26.22l16.98 -9.26 9.25 16.99 -26.24 -7.73zm-139.47 59.1l17.21 -21.21 3.98 -0.44 3.96 -0.5 3.98 -0.54 3.97 -0.59 3.95 -0.63 3.94 -0.68 3.95 -0.73 3.94 -0.78 3.94 -0.82 3.9 -0.86 3.9 -0.92 3.91 -0.98 3.89 -1.01 3.86 -1.07 3.86 -1.11 3.86 -1.17 3.84 -1.21 3.82 -1.25 3.82 -1.31 3.8 -1.35 3.77 -1.4 3.76 -1.44 3.75 -1.51 3.74 -1.54 3.71 -1.59 3.7 -1.64 3.68 -1.69 3.66 -1.73 3.64 -1.78 3.63 -1.83 3.61 -1.88 3.58 -1.92 18.51 33.95 -4.02 2.16 -4.04 2.1 -4.05 2.05 -4.09 2.01 -4.1 1.94 -4.12 1.88 -4.14 1.83 -4.17 1.79 -4.17 1.72 -4.19 1.67 -4.22 1.63 -4.24 1.57 -4.24 1.51 -4.26 1.46 -4.29 1.41 -4.28 1.35 -4.3 1.3 -4.33 1.26 -4.34 1.18 -4.33 1.14 -4.35 1.08 -4.37 1.04 -4.39 0.98 -4.38 0.92 -4.38 0.86 -4.4 0.82 -4.41 0.77 -4.44 0.71 -4.41 0.65 -4.42 0.6 -4.45 0.55 -4.44 0.49 17.21 -21.21 -38.47 3.96zm0 0l-1.97 -19.19 19.19 -2.01 -17.21 21.21zm42.78 37.93l-17.26 21.22 -21.21 -17.25 -4.31 -41.89 38.47 -3.96 4.31 41.89zm0 0l1.98 19.24 -19.24 1.97 17.26 -21.22zm-149.32 -6.32l-13.1 -23.89 4.33 1.26 4.33 1.18 4.35 1.14 4.36 1.08 4.38 1.04 4.38 0.97 4.36 0.92 4.4 0.86 4.4 0.82 4.41 0.75 4.4 0.71 4.4 0.64 4.44 0.6 4.42 0.54 4.41 0.48 4.45 0.42 4.44 0.38 4.42 0.32 4.45 0.26 4.44 0.22 4.44 0.15 4.45 0.11 4.43 0.06 4.44 -0.01 4.46 -0.06 4.44 -0.11 4.44 -0.16 4.44 -0.22 4.43 -0.26 4.42 -0.33 4.44 -0.38 4.41 -0.42 3.95 38.47 -4.88 0.47 -4.88 0.41 -4.89 0.36 -4.9 0.29 -4.88 0.24 -4.91 0.18 -4.91 0.12 -4.88 0.06 -4.91 0.01 -4.93 -0.06 -4.89 -0.12 -4.92 -0.17 -4.91 -0.24 -4.89 -0.29 -4.92 -0.35 -4.91 -0.42 -4.88 -0.47 -4.92 -0.53 -4.89 -0.6 -4.87 -0.64 -4.91 -0.72 -4.88 -0.77 -4.87 -0.83 -4.86 -0.9 -4.86 -0.95 -4.87 -1.02 -4.84 -1.08 -4.84 -1.13 -4.82 -1.2 -4.81 -1.26 -4.82 -1.33 -4.79 -1.39 -13.1 -23.89 37.16 10.7zm-24.06 13.19l-18.41 -5.44 5.31 -18.45 13.1 23.89zm-10.5 -32.92l0.04 -0.12 37.12 10.82 -2.6 9.03 -37.16 -10.7 2.6 -9.03zm0 0l0.04 -0.12 -0.23 0.77 0.19 -0.65zm9.32 -31.57l24 -13.08 13.09 24.02 -9.28 31.45 -37.08 -10.94 9.28 -31.45zm24 -13.08l18.57 5.45 -5.48 18.57 -13.09 -24.02zm-140.27 -56.92l27.2 -2.79 3.25 2.61 3.26 2.56 3.29 2.51 3.32 2.46 3.33 2.41 3.36 2.37 3.38 2.32 3.4 2.27 3.41 2.21 3.44 2.18 3.47 2.14 3.47 2.07 3.51 2.04 3.51 1.99 3.52 1.93 3.55 1.89 3.56 1.84 3.57 1.79 3.6 1.74 3.6 1.7 3.63 1.65 3.64 1.61 3.63 1.54 3.68 1.52 3.68 1.46 3.68 1.41 3.69 1.36 3.73 1.32 3.73 1.28 3.7 1.21 3.74 1.17 3.76 1.13 -10.91 37.1 -4.2 -1.26 -4.18 -1.31 -4.21 -1.38 -4.17 -1.43 -4.13 -1.47 -4.15 -1.52 -4.15 -1.59 -4.1 -1.64 -4.1 -1.68 -4.1 -1.75 -4.07 -1.79 -4.05 -1.84 -4.05 -1.91 -4.02 -1.96 -4.01 -2.01 -3.99 -2.07 -3.95 -2.1 -3.96 -2.18 -3.92 -2.22 -3.9 -2.27 -3.91 -2.33 -3.86 -2.38 -3.85 -2.42 -3.83 -2.5 -3.79 -2.54 -3.78 -2.59 -3.75 -2.65 -3.73 -2.69 -3.69 -2.76 -3.69 -2.8 -3.65 -2.87 -3.61 -2.9 27.2 -2.79 -29.99 -24.41zm0 0l12.21 -14.99 14.99 12.21 -27.2 2.79zm3.29 57.2l-27.2 2.79 -2.79 -27.2 26.69 -32.79 29.99 24.41 -26.69 32.79zm0 0l-12.21 14.99 -14.99 -12.21 27.2 -2.79zm-101.07 -110.18l7.77 -26.15 2.09 3.81 2.14 3.8 2.18 3.78 2.23 3.75 2.28 3.73 2.32 3.7 2.36 3.66 2.44 3.65 2.47 3.64 2.52 3.6 2.57 3.59 2.62 3.55 2.65 3.51 2.73 3.51 2.76 3.48 2.8 3.43 2.86 3.42 2.9 3.39 2.94 3.34 3.01 3.33 3.05 3.3 3.09 3.27 3.12 3.22 3.2 3.2 3.23 3.18 3.29 3.13 3.33 3.11 3.38 3.08 3.42 3.04 3.47 3 3.51 2.97 3.57 2.94 -24.41 29.99 -3.93 -3.24 -3.88 -3.28 -3.84 -3.33 -3.78 -3.37 -3.73 -3.39 -3.67 -3.42 -3.63 -3.47 -3.57 -3.51 -3.52 -3.53 -3.48 -3.6 -3.42 -3.61 -3.36 -3.64 -3.32 -3.68 -3.28 -3.73 -3.2 -3.73 -3.16 -3.78 -3.12 -3.82 -3.05 -3.84 -2.99 -3.86 -2.96 -3.91 -2.89 -3.94 -2.85 -3.96 -2.8 -4 -2.73 -4.01 -2.68 -4.04 -2.64 -4.08 -2.58 -4.11 -2.51 -4.12 -2.48 -4.16 -2.42 -4.18 -2.36 -4.19 -2.32 -4.23 7.77 -26.15 18.49 33.95zm-26.26 -7.8l-9.13 -16.94 16.9 -9.21 -7.77 26.15zm44.84 -46.34l26.2 7.67 -7.71 26.28 -37.07 20.2 -18.49 -33.95 37.07 -20.2zm26.2 7.67l9.33 17 -17.03 9.28 7.71 -26.28zm-59.16 -139.3l21.2 17.21 0.44 3.98 0.5 3.96 0.54 3.98 0.59 3.97 0.63 3.95 0.68 3.94 0.73 3.95 0.78 3.94 0.82 3.92 0.88 3.9 0.92 3.91 0.97 3.9 1.02 3.87 1.07 3.86 1.12 3.86 1.17 3.86 1.21 3.82 1.26 3.82 1.3 3.82 1.34 3.77 1.41 3.78 1.45 3.78 1.5 3.73 1.54 3.71 1.6 3.72 1.65 3.69 1.68 3.66 1.74 3.66 1.78 3.63 1.83 3.6 1.88 3.6 1.93 3.57 -33.9 18.61 -2.16 -4.01 -2.11 -4.02 -2.06 -4.06 -2.01 -4.08 -1.94 -4.08 -1.91 -4.12 -1.83 -4.13 -1.79 -4.14 -1.74 -4.18 -1.68 -4.22 -1.61 -4.2 -1.57 -4.22 -1.53 -4.27 -1.45 -4.24 -1.41 -4.26 -1.35 -4.31 -1.3 -4.3 -1.25 -4.31 -1.2 -4.34 -1.13 -4.35 -1.08 -4.34 -1.04 -4.35 -0.98 -4.39 -0.93 -4.39 -0.86 -4.38 -0.82 -4.4 -0.77 -4.41 -0.71 -4.44 -0.65 -4.41 -0.6 -4.42 -0.55 -4.45 -0.49 -4.44 21.2 17.21 -3.95 -38.47zm0 0l19.19 -1.97 2.01 19.19 -21.2 -17.21zm-37.95 42.77l-21.21 -17.26 17.26 -21.21 41.9 -4.31 3.95 38.47 -41.9 4.31zm0 0l-19.23 1.97 -1.97 -19.23 21.21 17.26zm-0.29 -152.92l30.62 -9.62 -1.26 4.33 -1.18 4.33 -1.15 4.37 -1.09 4.37 -1.03 4.35 -0.97 4.38 -0.92 4.39 -0.87 4.4 -0.81 4.39 -0.77 4.42 -0.7 4.42 -0.65 4.42 -0.6 4.43 -0.54 4.44 -0.49 4.44 -0.44 4.44 -0.38 4.44 -0.33 4.44 -0.27 4.44 -0.22 4.44 -0.16 4.44 -0.11 4.44 -0.06 4.44 0 4.47 0.05 4.44 0.11 4.42 0.16 4.45 0.21 4.45 0.26 4.41 0.33 4.42 0.38 4.44 0.42 4.41 -38.47 3.95 -0.47 -4.88 -0.41 -4.88 -0.36 -4.89 -0.29 -4.92 -0.23 -4.89 -0.18 -4.89 -0.12 -4.92 -0.05 -4.92 0 -4.89 0.06 -4.92 0.12 -4.92 0.18 -4.92 0.24 -4.92 0.3 -4.92 0.36 -4.92 0.42 -4.9 0.47 -4.91 0.54 -4.91 0.6 -4.89 0.66 -4.9 0.72 -4.89 0.78 -4.88 0.83 -4.88 0.91 -4.87 0.95 -4.86 1.02 -4.85 1.08 -4.85 1.14 -4.84 1.21 -4.83 1.25 -4.79 1.33 -4.82 1.39 -4.79 30.62 -9.62 -24.15 30.2zm-6.47 -20.58l8.15 -27.59 22.46 17.97 -30.62 9.62zm30.74 -9.52l-17.38 33.7 -6.78 -3.5 -0.12 -0.1 24.15 -30.2 0.12 0.1zm-17.38 33.7l-3.73 -1.07 -3.04 -2.43 6.78 3.5zm22.32 -33.85l0.16 0.05 -10.76 37.15 -11.72 -3.34 10.6 -37.2 11.72 3.34zm0 0l0.16 0.05 -0.25 -0.07 0.09 0.02zm28.8 8.49l13.09 24 -24.01 13.09 -28.64 -8.44 10.93 -37.1 28.64 8.44zm13.09 24l-5.46 18.57 -18.55 -5.47 24.01 -13.09zm56.83 -140.16l2.79 27.2 -2.61 3.25 -2.55 3.26 -2.52 3.3 -2.46 3.31 -2.41 3.33 -2.36 3.35 -2.32 3.38 -2.27 3.4 -2.23 3.42 -2.18 3.42 -2.11 3.43 -2.07 3.48 -2.04 3.49 -1.96 3.5 -1.94 3.53 -1.88 3.55 -1.84 3.56 -1.79 3.55 -1.74 3.58 -1.7 3.61 -1.64 3.61 -1.61 3.64 -1.56 3.64 -1.5 3.64 -1.45 3.65 -1.41 3.72 -1.38 3.7 -1.3 3.69 -1.27 3.73 -1.22 3.72 -1.17 3.74 -1.13 3.76 -37.1 -10.91 1.26 -4.2 1.31 -4.18 1.37 -4.19 1.42 -4.17 1.48 -4.17 1.52 -4.13 1.57 -4.11 1.63 -4.13 1.7 -4.12 1.74 -4.07 1.79 -4.07 1.85 -4.05 1.89 -4.02 1.95 -4.04 2.01 -4.01 2.05 -3.97 2.11 -3.95 2.15 -3.94 2.23 -3.94 2.27 -3.9 2.32 -3.87 2.39 -3.89 2.44 -3.85 2.47 -3.81 2.54 -3.79 2.58 -3.78 2.64 -3.74 2.7 -3.73 2.76 -3.7 2.8 -3.66 2.86 -3.67 2.92 -3.62 2.79 27.2 24.41 -29.99zm0 0l14.99 12.21 -12.21 14.99 -2.79 -27.2zm-57.2 3.31l-2.79 -27.2 27.2 -2.79 32.79 26.68 -24.41 29.99 -32.79 -26.68zm0 0l-14.99 -12.21 12.21 -14.99 2.79 27.2zm110.28 -101.19l26.16 7.77 -3.81 2.1 -3.8 2.13 -3.78 2.19 -3.74 2.23 -3.73 2.28 -3.71 2.33 -3.69 2.39 -3.64 2.41 -3.63 2.49 -3.63 2.54 -3.57 2.55 -3.55 2.63 -3.54 2.67 -3.5 2.72 -3.47 2.76 -3.46 2.82 -3.42 2.85 -3.38 2.91 -3.36 2.94 -3.33 3 -3.3 3.06 -3.28 3.1 -3.24 3.15 -3.21 3.19 -3.17 3.23 -3.14 3.29 -3.11 3.33 -3.08 3.38 -3.05 3.42 -3 3.47 -2.97 3.51 -2.94 3.57 -29.99 -24.41 3.24 -3.93 3.28 -3.88 3.33 -3.83 3.36 -3.78 3.39 -3.73 3.43 -3.69 3.48 -3.63 3.51 -3.59 3.54 -3.51 3.58 -3.47 3.62 -3.42 3.64 -3.37 3.69 -3.33 3.72 -3.27 3.76 -3.22 3.78 -3.16 3.82 -3.11 3.85 -3.06 3.87 -3.01 3.91 -2.95 3.94 -2.9 3.98 -2.86 3.99 -2.78 4.02 -2.75 4.07 -2.69 4.07 -2.63 4.1 -2.58 4.13 -2.54 4.17 -2.47 4.17 -2.42 4.21 -2.37 4.23 -2.31 26.16 7.77 -33.97 18.49zm7.81 -26.26l16.95 -9.14 9.21 16.91 -26.16 -7.77zm46.34 44.84l-7.68 26.2 -26.29 -7.71 -20.19 -37.07 33.97 -18.49 20.19 37.07zm-7.68 26.2l-17.01 9.34 -9.28 -17.04 26.29 7.71zm139.2 -59.05l-17.21 21.21 -3.98 0.44 -3.96 0.5 -4 0.54 -3.97 0.58 -3.92 0.63 -3.95 0.68 -3.95 0.73 -3.94 0.78 -3.93 0.82 -3.88 0.86 -3.9 0.93 -3.91 0.96 -3.86 1.01 -3.87 1.07 -3.86 1.11 -3.82 1.15 -3.82 1.21 -3.82 1.26 -3.8 1.3 -3.77 1.34 -3.77 1.4 -3.76 1.45 -3.73 1.48 -3.73 1.55 -3.69 1.58 -3.68 1.64 -3.68 1.69 -3.64 1.74 -3.63 1.79 -3.6 1.83 -3.59 1.88 -3.57 1.93 -18.61 -33.9 4.01 -2.16 4.03 -2.12 4.06 -2.05 4.07 -2 4.1 -1.95 4.1 -1.88 4.13 -1.85 4.17 -1.78 4.17 -1.73 4.19 -1.68 4.2 -1.61 4.22 -1.57 4.24 -1.52 4.26 -1.45 4.26 -1.4 4.28 -1.35 4.31 -1.3 4.31 -1.24 4.31 -1.18 4.35 -1.14 4.33 -1.08 4.35 -1.03 4.4 -0.98 4.37 -0.91 4.38 -0.86 4.39 -0.81 4.4 -0.77 4.44 -0.71 4.41 -0.64 4.4 -0.6 4.45 -0.55 4.44 -0.49 -17.21 21.21 38.47 -3.96zm0 0l1.97 19.19 -19.19 2.01 17.21 -21.21zm-42.78 -37.93l17.26 -21.22 21.21 17.25 4.31 41.89 -38.47 3.96 -4.31 -41.89zm0 0l-1.98 -19.24 19.24 -1.97 -17.26 21.22zm149.48 6.32l13.07 23.99 -4.33 -1.26 -4.32 -1.18 -4.39 -1.15 -4.36 -1.09 -4.36 -1.03 -4.38 -0.97 -4.39 -0.92 -4.4 -0.87 -4.4 -0.81 -4.41 -0.77 -4.42 -0.7 -4.43 -0.65 -4.42 -0.6 -4.42 -0.54 -4.44 -0.48 -4.45 -0.43 -4.45 -0.38 -4.44 -0.33 -4.44 -0.27 -4.44 -0.22 -4.45 -0.16 -4.44 -0.11 -4.44 -0.06 -4.47 0 -4.44 0.05 -4.43 0.11 -4.45 0.16 -4.44 0.21 -4.41 0.26 -4.43 0.33 -4.44 0.38 -4.41 0.42 -3.95 -38.47 4.88 -0.47 4.88 -0.41 4.9 -0.36 4.92 -0.29 4.88 -0.23 4.89 -0.18 4.93 -0.12 4.91 -0.05 4.89 0 4.92 0.06 4.92 0.12 4.92 0.18 4.92 0.24 4.92 0.3 4.91 0.36 4.91 0.42 4.89 0.48 4.91 0.53 4.91 0.6 4.89 0.66 4.88 0.72 4.89 0.78 4.87 0.83 4.88 0.91 4.86 0.95 4.86 1.02 4.84 1.08 4.85 1.14 4.82 1.21 4.79 1.25 4.83 1.33 4.79 1.39 13.07 23.99 -37.1 -10.89zm24.03 -13.09l18.51 5.47 -5.44 18.52 -13.07 -23.99zm1.18 64.47l-24 13.1 -13.09 -24 11.89 -40.48 37.1 10.89 -11.89 40.48zm-24 13.1l-18.54 -5.45 5.45 -18.54 13.09 24zm140.16 56.83l-27.2 2.79 -3.25 -2.6 -3.28 -2.57 -3.28 -2.5 -3.32 -2.46 -3.34 -2.42 -3.33 -2.36 -3.38 -2.32 -3.4 -2.27 -3.39 -2.21 -3.45 -2.18 -3.46 -2.13 -3.47 -2.08 -3.49 -2.03 -3.5 -1.97 -3.52 -1.93 -3.54 -1.88 -3.55 -1.83 -3.59 -1.79 -3.58 -1.74 -3.6 -1.68 -3.63 -1.66 -3.63 -1.6 -3.64 -1.56 -3.65 -1.5 -3.66 -1.45 -3.7 -1.42 -3.69 -1.37 -3.7 -1.3 -3.73 -1.27 -3.71 -1.22 -3.74 -1.17 -3.76 -1.13 10.91 -37.1 4.2 1.26 4.18 1.31 4.2 1.37 4.15 1.42 4.17 1.48 4.13 1.53 4.11 1.57 4.12 1.63 4.11 1.7 4.08 1.74 4.07 1.79 4.04 1.83 4.05 1.91 4.02 1.96 3.98 1.99 4 2.06 3.96 2.11 3.95 2.16 3.92 2.22 3.91 2.27 3.89 2.32 3.85 2.37 3.84 2.42 3.83 2.49 3.79 2.54 3.78 2.58 3.76 2.65 3.72 2.7 3.69 2.74 3.69 2.81 3.65 2.86 3.62 2.91 -27.2 2.79 29.99 24.41zm0 0l-12.21 14.99 -14.99 -12.21 27.2 -2.79zm-3.31 -57.19l27.2 -2.79 2.79 27.2 -26.68 32.78 -29.99 -24.41 26.68 -32.78zm0 0l12.21 -14.99 14.99 12.21 -27.2 2.79zm101.2 110.27l-7.78 26.16 -2.09 -3.81 -2.14 -3.82 -2.18 -3.77 -2.23 -3.74 -2.27 -3.73 -2.34 -3.71 -2.38 -3.69 -2.42 -3.64 -2.48 -3.64 -2.53 -3.6 -2.58 -3.6 -2.62 -3.55 -2.67 -3.53 -2.72 -3.51 -2.76 -3.46 -2.82 -3.45 -2.86 -3.43 -2.9 -3.38 -2.97 -3.38 -3 -3.34 -3.03 -3.28 -3.1 -3.27 -3.16 -3.25 -3.19 -3.21 -3.23 -3.16 -3.29 -3.15 -3.33 -3.11 -3.38 -3.08 -3.42 -3.05 -3.47 -3 -3.51 -2.97 -3.57 -2.94 24.41 -29.99 3.93 3.24 3.88 3.28 3.83 3.33 3.78 3.36 3.73 3.39 3.69 3.43 3.62 3.47 3.59 3.51 3.53 3.55 3.47 3.57 3.42 3.61 3.39 3.67 3.31 3.69 3.26 3.7 3.23 3.77 3.16 3.78 3.11 3.81 3.07 3.86 3.01 3.87 2.95 3.91 2.91 3.95 2.84 3.95 2.8 4 2.74 4.03 2.7 4.05 2.63 4.08 2.58 4.1 2.54 4.13 2.48 4.17 2.42 4.19 2.36 4.19 2.32 4.23 -7.78 26.16 -18.49 -33.97zm26.27 7.81l9.13 16.95 -16.91 9.21 7.78 -26.16zm-44.86 46.34l-26.2 -7.68 7.71 -26.29 37.08 -20.19 18.49 33.97 -37.08 20.19zm-26.2 -7.68l-9.34 -17.01 17.04 -9.28 -7.71 26.29zm59.04 139.18l-21.2 -17.21 -0.44 -3.98 -0.5 -3.96 -0.54 -3.99 -0.58 -3.97 -0.63 -3.92 -0.68 -3.95 -0.73 -3.95 -0.78 -3.94 -0.82 -3.93 -0.86 -3.88 -0.93 -3.9 -0.96 -3.9 -1.01 -3.86 -1.07 -3.87 -1.11 -3.86 -1.15 -3.82 -1.21 -3.82 -1.26 -3.82 -1.3 -3.81 -1.35 -3.78 -1.39 -3.76 -1.45 -3.76 -1.48 -3.73 -1.55 -3.72 -1.58 -3.7 -1.64 -3.68 -1.69 -3.68 -1.74 -3.64 -1.79 -3.63 -1.83 -3.6 -1.88 -3.59 -1.93 -3.57 33.9 -18.61 2.16 4.01 2.12 4.03 2.05 4.06 2 4.07 1.95 4.1 1.88 4.1 1.85 4.13 1.78 4.16 1.73 4.16 1.68 4.2 1.61 4.2 1.57 4.23 1.51 4.25 1.45 4.25 1.4 4.26 1.35 4.28 1.3 4.31 1.24 4.31 1.18 4.31 1.14 4.34 1.08 4.34 1.03 4.35 0.98 4.4 0.91 4.37 0.86 4.38 0.81 4.39 0.77 4.4 0.71 4.44 0.64 4.41 0.6 4.39 0.55 4.45 0.49 4.44 -21.2 -17.21 3.95 38.47zm0 0l-19.19 1.96 -2.01 -19.18 21.2 17.21zm37.95 -42.77l21.2 17.22 -17.25 21.25 -41.9 4.3 -3.95 -38.47 41.9 -4.3zm0 0l19.19 -1.96 2.01 19.19 -21.2 -17.22zm-6.99 149.3l-23.34 13.25 1.26 -4.33 1.19 -4.35 1.15 -4.35 1.08 -4.37 1.04 -4.37 0.98 -4.38 0.93 -4.39 0.86 -4.39 0.82 -4.4 0.76 -4.41 0.71 -4.42 0.65 -4.41 0.6 -4.43 0.54 -4.42 0.49 -4.43 0.44 -4.45 0.38 -4.44 0.33 -4.42 0.27 -4.44 0.22 -4.44 0.16 -4.46 0.11 -4.44 0.06 -4.43 0 -4.46 -0.06 -4.44 -0.11 -4.43 -0.17 -4.44 -0.22 -4.45 -0.27 -4.44 -0.33 -4.41 -0.38 -4.43 -0.43 -4.43 38.45 -4.03 0.48 4.88 0.43 4.9 0.36 4.92 0.3 4.91 0.24 4.89 0.19 4.92 0.12 4.93 0.06 4.91 0 4.92 -0.06 4.93 -0.13 4.92 -0.18 4.9 -0.24 4.92 -0.3 4.92 -0.36 4.92 -0.43 4.9 -0.47 4.89 -0.54 4.9 -0.6 4.91 -0.67 4.9 -0.72 4.88 -0.79 4.88 -0.84 4.87 -0.91 4.88 -0.96 4.85 -1.03 4.86 -1.08 4.84 -1.15 4.83 -1.2 4.83 -1.26 4.81 -1.32 4.8 -1.39 4.79 -23.34 13.25 9.59 -37.46zm13.75 24.21l-5.28 17.86 -18.05 -4.61 23.34 -13.25zm-23.69 13.16l-0.66 -0.18 10.25 -37.28 0.35 0.09 -9.59 37.46 -0.35 -0.09zm0 0l-0.39 -0.1 -0.27 -0.08 0.66 0.18zm-27.3 -8.01l10.91 -37.1 26.64 7.84 -10.91 37.1 -26.64 -7.84zm-13.49 -3.97l-13.09 -24 24 -13.09 13.49 3.97 -10.91 37.1 -13.49 -3.97zm-13.09 -24l5.45 -18.55 18.55 5.45 -24 13.09zm-56.83 140.16l-2.79 -27.2 2.59 -3.24 2.57 -3.26 2.49 -3.28 2.45 -3.3 2.41 -3.32 2.36 -3.35 2.32 -3.37 2.27 -3.41 2.23 -3.42 2.16 -3.42 2.13 -3.45 2.07 -3.45 2.02 -3.5 1.99 -3.52 1.92 -3.51 1.9 -3.57 1.85 -3.56 1.78 -3.55 1.74 -3.6 1.7 -3.62 1.65 -3.62 1.61 -3.63 1.55 -3.64 1.52 -3.67 1.46 -3.67 1.4 -3.69 1.37 -3.69 1.31 -3.71 1.27 -3.72 1.22 -3.74 1.18 -3.74 1.13 -3.74 37.1 10.91 -1.27 4.22 -1.31 4.18 -1.37 4.18 -1.42 4.16 -1.48 4.17 -1.53 4.15 -1.58 4.12 -1.64 4.13 -1.68 4.09 -1.74 4.1 -1.8 4.08 -1.84 4.04 -1.9 4.03 -1.95 4.02 -2.02 4.04 -2.06 3.97 -2.1 3.95 -2.17 3.96 -2.22 3.91 -2.27 3.91 -2.33 3.91 -2.37 3.86 -2.44 3.85 -2.48 3.81 -2.53 3.78 -2.59 3.78 -2.63 3.74 -2.7 3.73 -2.75 3.69 -2.8 3.67 -2.85 3.64 -2.9 3.61 -2.79 -27.2 -24.41 29.99zm0 0l-14.99 -12.21 12.21 -14.99 2.79 27.2zm57.21 -3.3l2.79 27.2 -27.2 2.79 -32.79 -26.69 24.41 -29.99 32.79 26.69zm0 0l14.99 12.21 -12.21 14.99 -2.79 -27.2z"/>
      </g>
     </g>
    </g>
    <path class="fil7" d="M940.53 67.36c-66.29,-42.63 -145.17,-67.36 -229.83,-67.36 -166.36,0 -310.41,95.49 -380.37,234.63 -0.24,5.91 -0.4,11.86 -0.4,17.83 0,234.99 190.56,430.35 425.51,425.5l17.81 -0.37c139.14,-69.97 234.66,-214.03 234.66,-380.39 0,-84.67 -24.74,-163.55 -67.37,-229.84z"/>
    <path class="fil8" d="M1267.57 551.43c-5.43,-13.2 -11.64,-28.93 -18.64,-47.18 -6.99,-18.25 -14.27,-37.38 -21.84,-57.38 -7.57,-20 -15.04,-40.29 -22.42,-60.87 -7.38,-20.58 -14.18,-39.8 -20.39,-57.66 -6.21,-17.86 -11.75,-33.69 -16.6,-47.48 -4.85,-13.79 -8.25,-23.98 -10.19,-30.58 -4.27,-13.98 -8.15,-26.4 -11.65,-37.28 -3.5,-10.87 -5.24,-20.19 -5.24,-27.96 0,-10.09 3.01,-18.16 9.03,-24.18 6.03,-6.02 14.86,-9.03 26.51,-9.03 8.93,0 16.22,1.17 21.84,3.49 5.63,2.33 9.22,3.89 10.78,4.66 2.72,10.88 6.31,23.88 10.77,39.03 4.47,15.14 9.52,31.64 15.15,49.51 5.63,17.86 11.55,36.5 17.77,55.93 6.21,19.41 12.52,38.73 18.93,57.96 6.41,19.23 12.62,37.86 18.64,55.93 6.02,18.05 11.75,34.46 17.19,49.21 6.99,-23.29 14.46,-48.93 22.42,-76.89 7.96,-27.96 15.63,-55.14 23.01,-81.55 7.38,-26.41 13.98,-50.49 19.8,-72.23 5.82,-21.75 10.09,-38.05 12.82,-48.93 3.11,-10.87 7.66,-19.61 13.69,-26.21 6.02,-6.6 15.63,-9.9 28.83,-9.9 8.93,0 16.89,1.17 23.88,3.49 6.99,2.33 11.46,4.08 13.4,5.24 4.66,20.2 10.1,42.81 16.32,67.86 6.21,25.05 12.81,51.07 19.8,78.06 6.99,26.99 14.27,54.27 21.84,81.84 7.57,27.58 15.04,53.79 22.42,78.64 8.54,-24.85 17.09,-50.19 25.63,-76.02 8.54,-25.83 16.6,-50.97 24.18,-75.44 7.57,-24.47 14.56,-47.48 20.96,-69.03 6.41,-21.55 11.94,-40.48 16.61,-56.79 3.88,-13.21 9.12,-22.82 15.73,-28.84 6.6,-6.02 16.11,-9.03 28.54,-9.03 10.88,0 19.8,1.65 26.8,4.95 6.99,3.3 11.26,5.54 12.81,6.7 -6.99,25.63 -15.73,54.27 -26.21,85.91 -10.49,31.65 -21.65,64.66 -33.49,99.02 -11.84,34.38 -24.26,68.93 -37.28,103.69 -13,34.76 -25.72,67.86 -38.15,99.32l-78.06 0c-2.32,-6.6 -5.43,-16.02 -9.32,-28.25 -3.88,-12.23 -8.06,-26.12 -12.52,-41.65 -4.46,-15.53 -9.32,-32.33 -14.56,-50.39 -5.24,-18.05 -10.29,-36.31 -15.14,-54.75 -4.86,-18.45 -9.52,-36.41 -13.98,-53.89 -4.46,-17.47 -8.45,-33.59 -11.94,-48.34 -3.5,14.37 -7.57,30.29 -12.24,47.76 -4.66,17.47 -9.51,35.24 -14.56,53.3 -5.05,18.05 -10.19,36.01 -15.43,53.88 -5.24,17.86 -10.29,34.66 -15.14,50.39 -4.86,15.73 -9.32,29.8 -13.4,42.23 -4.08,12.43 -7.47,22.33 -10.19,29.71l-77.47 0zm732.79 -21.55c-3.11,1.94 -7.96,4.66 -14.56,8.15 -6.6,3.49 -14.86,6.79 -24.75,9.9 -9.91,3.11 -21.36,5.83 -34.37,8.16 -13.01,2.32 -27.28,3.49 -42.81,3.49 -21.75,0 -42.04,-3.3 -60.87,-9.9 -18.83,-6.6 -35.34,-16.41 -49.51,-29.42 -14.18,-13.01 -25.34,-28.93 -33.49,-47.76 -8.16,-18.83 -12.24,-40.49 -12.24,-64.95 0,-23.3 3.99,-44.56 11.94,-63.79 7.96,-19.23 19.03,-35.73 33.2,-49.52 14.18,-13.78 30.88,-24.46 50.1,-32.04 19.23,-7.57 40.29,-11.36 63.21,-11.36 20.19,0 38.05,2.62 53.58,7.86 15.53,5.24 28.64,12.24 39.32,20.97 10.67,8.74 18.74,18.93 24.17,30.58 5.44,11.65 8.16,24.08 8.16,37.28 0,13.59 -2.53,25.92 -7.57,36.99 -5.05,11.06 -13.98,20.58 -26.79,28.55 -12.82,7.96 -30.1,14.17 -51.85,18.64 -21.75,4.46 -49.32,6.69 -82.72,6.69 -7.76,0 -15.04,-0.1 -21.84,-0.29 -6.79,-0.2 -14.07,-0.49 -21.84,-0.88 3.11,19.8 12.72,35.83 28.84,48.06 16.11,12.24 39.12,18.35 69.03,18.35 10.09,0 19.41,-0.77 27.96,-2.33 8.54,-1.56 16.21,-3.5 23.01,-5.82 6.79,-2.33 12.62,-4.66 17.47,-7 4.85,-2.33 8.45,-4.08 10.78,-5.24l24.46 46.61zm-204.46 -138.06c8.94,0.39 17.47,0.58 25.63,0.58 8.15,0 16.31,0 24.46,0 21.36,0 38.64,-1.35 51.84,-4.08 13.21,-2.72 23.5,-6.21 30.88,-10.49 7.38,-4.27 12.23,-9.12 14.56,-14.56 2.33,-5.44 3.5,-11.06 3.5,-16.89 0,-14.75 -5.93,-25.82 -17.77,-33.2 -11.85,-7.38 -26.51,-11.06 -43.98,-11.06 -14.37,0 -26.99,2.52 -37.86,7.57 -10.88,5.05 -20,11.74 -27.38,20.09 -7.38,8.35 -13.1,17.96 -17.18,28.84 -4.08,10.87 -6.31,21.94 -6.7,33.2zm258.05 -238.82c0,-10.49 3.11,-18.26 9.32,-23.3 6.21,-5.05 14.95,-7.57 26.21,-7.57 7,0 13.4,0.87 19.23,2.63 5.82,1.74 9.71,3.01 11.65,3.78l0 167.18c9.7,-12.43 23.11,-23.01 40.19,-31.75 17.09,-8.73 36.7,-13.1 58.84,-13.1 21.35,0 41.07,3.78 59.12,11.36 18.06,7.57 33.79,18.26 47.18,32.04 13.4,13.79 23.88,30.1 31.46,48.93 7.57,18.83 11.36,39.52 11.36,62.04 0,22.14 -3.88,42.72 -11.65,61.75 -7.76,19.03 -18.64,35.34 -32.62,48.93 -13.98,13.59 -30.58,24.27 -49.8,32.04 -19.22,7.77 -40.29,11.65 -63.2,11.65 -22.91,0 -43.98,-3.49 -63.21,-10.49 -19.22,-6.99 -35.82,-17.47 -49.8,-31.46 -13.98,-13.98 -24.85,-31.46 -32.62,-52.42 -7.76,-20.97 -11.65,-45.64 -11.65,-73.99l0 -238.24zm156.12 346.59c13.2,0 25.34,-2.43 36.41,-7.28 11.06,-4.86 20.58,-11.46 28.55,-19.8 7.96,-8.35 14.07,-18.26 18.35,-29.71 4.27,-11.46 6.41,-23.98 6.41,-37.57 0,-13.59 -2.14,-26.21 -6.41,-37.86 -4.27,-11.65 -10.39,-21.65 -18.35,-30 -7.97,-8.35 -17.48,-14.95 -28.55,-19.8 -11.06,-4.85 -23.2,-7.28 -36.41,-7.28 -13.59,0 -25.92,2.43 -36.99,7.28 -11.06,4.85 -20.48,11.55 -28.25,20.1 -7.76,8.54 -13.88,18.64 -18.35,30.29 -4.47,11.65 -6.7,24.08 -6.7,37.28 0,13.98 2.23,26.79 6.7,38.44 4.47,11.65 10.68,21.56 18.64,29.71 7.96,8.15 17.47,14.56 28.55,19.22 11.06,4.66 23.2,7 36.41,7zm437.46 -149.12c2.72,0.38 10.29,1.45 22.72,3.2 12.43,1.75 28.35,2.63 47.76,2.63 21.36,0 39.22,-1.94 53.59,-5.82 14.37,-3.89 25.72,-9.33 34.07,-16.32 8.35,-6.99 14.27,-15.04 17.77,-24.18 3.5,-9.12 5.24,-18.93 5.24,-29.42 0,-9.7 -1.56,-19.12 -4.66,-28.24 -3.11,-9.13 -8.93,-17.19 -17.47,-24.18 -8.54,-7 -20.29,-12.62 -35.24,-16.89 -14.95,-4.27 -34.07,-6.41 -57.38,-6.41 -18.64,0 -33.59,0.39 -44.85,1.17 -11.26,0.77 -18.44,1.55 -21.55,2.33l0 142.13zm-67.58 -160.77c0,-12.43 3.11,-21.36 9.32,-26.8 6.21,-5.44 13.79,-9.12 22.72,-11.06 6.21,-1.17 17.47,-2.43 33.78,-3.79 16.32,-1.35 39.61,-2.04 69.9,-2.04 62.14,0 108.34,12.24 138.63,36.7 30.29,24.47 45.44,57.09 45.44,97.86 0,19.03 -3.2,36.8 -9.61,53.3 -6.41,16.51 -16.6,30.78 -30.58,42.81 -13.98,12.04 -32.23,21.46 -54.75,28.25 -22.53,6.8 -49.9,10.2 -82.13,10.2 -8.16,0 -16.41,-0.29 -24.76,-0.88 -8.35,-0.58 -16.01,-1.16 -23.01,-1.74 -6.99,-0.58 -13,-1.26 -18.05,-2.04 -5.06,-0.77 -8.16,-1.17 -9.32,-1.17l0 142.13 -67.58 0 0 -361.73zm525.42 61.16c22.53,0 43.6,3.88 63.21,11.65 19.61,7.76 36.6,18.54 50.97,32.33 14.37,13.79 25.63,30.09 33.79,48.93 8.15,18.83 12.23,39.32 12.23,61.45 0,21.75 -4.08,42.04 -12.23,60.87 -8.16,18.83 -19.42,35.14 -33.79,48.93 -14.37,13.79 -31.36,24.66 -50.97,32.62 -19.61,7.96 -40.68,11.94 -63.21,11.94 -22.52,0 -43.59,-3.98 -63.2,-11.94 -19.61,-7.97 -36.6,-18.83 -50.97,-32.62 -14.37,-13.79 -25.63,-30.09 -33.79,-48.93 -8.15,-18.83 -12.23,-39.13 -12.23,-60.87 0,-22.14 4.08,-42.62 12.23,-61.45 8.15,-18.83 19.41,-35.14 33.79,-48.93 14.37,-13.79 31.36,-24.57 50.97,-32.33 19.61,-7.77 40.68,-11.65 63.2,-11.65zm0 249.9c13.21,0 25.44,-2.43 36.7,-7.28 11.26,-4.86 20.87,-11.65 28.84,-20.39 7.96,-8.74 14.17,-18.83 18.64,-30.29 4.46,-11.46 6.69,-23.98 6.69,-37.57 0,-13.59 -2.23,-26.31 -6.69,-38.15 -4.47,-11.85 -10.68,-22.04 -18.64,-30.58 -7.97,-8.54 -17.58,-15.24 -28.84,-20.1 -11.26,-4.85 -23.49,-7.28 -36.7,-7.28 -13.59,0 -25.92,2.43 -36.98,7.28 -11.07,4.86 -20.59,11.55 -28.55,20.1 -7.96,8.54 -14.17,18.74 -18.64,30.58 -4.47,11.84 -6.7,24.56 -6.7,38.15 0,13.59 2.23,26.12 6.7,37.57 4.47,11.46 10.68,21.55 18.64,30.29 7.96,8.74 17.47,15.53 28.55,20.39 11.06,4.85 23.39,7.28 36.98,7.28zm216.12 -137.48c0,-35.73 10.97,-63.39 32.91,-83 21.94,-19.61 52.33,-29.42 91.16,-29.42 24.46,0 44.36,3.4 59.71,10.19 15.34,6.8 23.01,17.19 23.01,31.16 0,6.6 -1.85,13.01 -5.54,19.23 -3.69,6.21 -6.7,10.09 -9.03,11.65 -6.6,-3.11 -14.75,-6.02 -24.46,-8.74 -9.71,-2.72 -20.78,-4.08 -33.2,-4.08 -45.44,0 -68.16,24.08 -68.16,72.23l0 168.92 -66.4 0 0 -188.15zm248.14 -156.11c0,-10.88 3.11,-18.74 9.32,-23.6 6.21,-4.85 14.76,-7.28 25.63,-7.28 7,0 13.5,0.88 19.52,2.63 6.02,1.74 10,3.01 11.94,3.78l0 76.31 84.46 0c12.82,0 21.85,2.63 27.09,7.87 5.24,5.24 7.87,12.91 7.87,23.01 0,6.6 -0.97,12.71 -2.91,18.35 -1.94,5.63 -3.5,9.61 -4.66,11.94l-111.84 0 0 129.89c0,10.09 1.36,18.35 4.08,24.75 2.72,6.41 6.51,11.55 11.37,15.44 4.85,3.88 10.49,6.6 16.89,8.15 6.41,1.55 13.11,2.33 20.1,2.33 11.26,0 21.75,-1.75 31.46,-5.24 9.71,-3.5 16.7,-6.8 20.97,-9.91l26.79 44.27c-3.11,2.32 -7.48,5.24 -13.1,8.73 -5.63,3.5 -12.52,6.8 -20.68,9.91 -8.16,3.11 -17.29,5.72 -27.38,7.86 -10.09,2.14 -21.17,3.2 -33.2,3.2 -34.18,0 -60,-8.83 -77.47,-26.5 -17.47,-17.67 -26.21,-40.87 -26.21,-69.61l0 -256.3zm495.71 343.09c-3.88,0.77 -10,1.66 -18.35,2.63 -8.35,0.97 -18.16,1.94 -29.42,2.91 -11.26,0.97 -23.88,1.84 -37.86,2.62 -13.98,0.78 -28.54,1.17 -43.69,1.17 -30.29,0 -55.04,-2.62 -74.27,-7.86 -19.22,-5.24 -34.37,-12.24 -45.43,-20.97 -11.06,-8.74 -18.64,-18.83 -22.72,-30.29 -4.08,-11.46 -6.12,-23.2 -6.12,-35.24 0,-15.92 2.42,-29.91 7.28,-41.94 4.85,-12.04 12.81,-22.14 23.88,-30.29 11.06,-8.15 25.53,-14.28 43.39,-18.35 17.86,-4.08 39.61,-6.12 65.24,-6.12 14.76,0 28.73,0.49 41.93,1.46 13.21,0.97 23.11,1.84 29.71,2.62 0,-13.59 -2.23,-24.85 -6.7,-33.78 -4.46,-8.94 -10.58,-15.92 -18.35,-20.97 -7.77,-5.05 -17.09,-8.54 -27.96,-10.49 -10.88,-1.94 -22.91,-2.91 -36.12,-2.91 -22.13,0 -39.9,2.52 -53.3,7.57 -13.4,5.06 -22.23,9.32 -26.5,12.82 -2.33,-1.94 -5.54,-5.63 -9.61,-11.06 -4.08,-5.44 -6.12,-12.04 -6.12,-19.8 0,-5.44 1.46,-10.78 4.37,-16.02 2.91,-5.24 8.06,-9.91 15.43,-13.98 7.38,-4.08 17.28,-7.28 29.7,-9.6 12.43,-2.33 28.16,-3.5 47.18,-3.5 22.91,0 43.78,2.23 62.62,6.7 18.83,4.46 35.05,11.55 48.64,21.26 13.59,9.71 24.18,22.53 31.74,38.44 7.57,15.92 11.36,35.15 11.36,57.67l0 175.33zm-65.82 -129.31c-3.88,-0.77 -11.16,-1.94 -21.84,-3.5 -10.67,-1.55 -26.69,-2.32 -48.06,-2.32 -26.4,0 -45.63,3.98 -57.66,11.94 -12.04,7.97 -18.06,20.49 -18.06,37.57 0,6.99 1.26,13.4 3.78,19.23 2.53,5.82 6.9,10.77 13.11,14.85 6.21,4.08 14.66,7.19 25.34,9.33 10.67,2.14 23.98,3.2 39.9,3.2 17.86,0 32.04,-0.68 42.53,-2.05 10.49,-1.35 17.47,-2.42 20.96,-3.2l0 -85.05zm136.89 -267.95c0,-10.49 3.11,-18.26 9.32,-23.3 6.21,-5.05 14.95,-7.57 26.21,-7.57 6.99,0 13.4,0.87 19.22,2.63 5.83,1.74 9.71,3.01 11.65,3.78l0 422.9 -66.4 0 0 -398.43z"/>
   </g>
  </g>
 </g>
</svg>
